<svg xmlns="http://www.w3.org/2000/svg" id="svg-quickly-logo" width="472.175" height="461.375" fill-rule="evenodd" viewBox="0 0 13214.144 12912.382" clip-rule="evenodd" image-rendering="optimizeQuality" shape-rendering="geometricPrecision" text-rendering="geometricPrecision">
  <defs id="defs4">
    <style id="style6">
<![CDATA[
    .fil1 {fill:none}
    .fil4 {fill:#109634}
    .fil3 {fill:#1620E0}
    .fil6 {fill:#E00909}
    .fil2 {fill:#E80707}
    .fil5 {fill:#F0C800}
    .fil0 {fill:black;fill-rule:nonzero}
   ]]>
    </style>
  </defs>
  <g>
    <g>
      <path id="path11" fill-rule="nonzero" d="M2552.117 9764.94c-82.492 24.233-156.218 36.607-220.15 36.607-163.436 0-323.263-48.98-477.42-147.454-97.442-62.9-225.304-172.2-384.616-327.388-100.536 11.343-188.7 17.014-264.488 17.014-347.495 0-636.73-121.16-867.192-363.995C112.43 8741.53-.48 8448.17-.48 8099.643c0-354.198 121.16-645.496 363.993-874.41 238.71-224.79 535.68-336.67 889.878-336.67 351.105 0 638.28 117.55 860.49 353.683 218.088 231.492 327.39 524.337 327.39 877.504 0 452.157-176.842 793.98-530.525 1026.504 117.035 168.077 210.354 286.658 278.925 355.23 86.1 85.07 206.744 172.716 362.447 263.457zm-499.59-1567.854c0-265.52-74.242-496.496-224.273-693.444-163.437-216.025-374.306-323.78-634.67-323.78-244.38 0-441.33 82.492-591.36 247.99-142.814 159.312-214.48 362.963-214.48 608.89 0 263.46 75.275 493.92 226.337 691.9 166.015 216.024 376.885 323.778 634.67 323.778 238.71 0 434.628-84.038 586.206-253.146 144.876-161.89 217.572-362.447 217.572-602.188zM4091.1 9309.176h-395.444v-280.987l-250.052 274.283c-79.4 27.325-153.125 41.246-219.634 41.246-183.544 0-310.375-53.62-378.946-160.344-52.588-83.007-79.913-221.696-80.945-417.098-1.032-57.744-.516-140.236 1.546-247.475 3.61-114.457 5.156-196.948 5.156-249.02 0-252.116-24.232-459.376-72.696-621.78h464.53c-43.823 117.034-65.477 256.238-65.477 415.55v628.998c0 123.223 16.497 207.777 50.01 254.178 40.214 56.713 118.58 85.07 234.585 85.07 85.07 0 187.668-28.873 308.312-86.617v-838.835c0-166.53-22.17-319.14-65.993-458.343H4091.1c-44.34 142.298-65.993 252.63-65.993 330.48v806.872c0 211.385 21.654 385.648 65.993 523.82zm756.86-2089.1c0 64.963-18.56 122.707-55.166 174.78-41.76 55.166-93.834 83.007-156.22 83.007-67.54 0-122.19-26.294-164.982-79.398-38.152-48.98-57.228-107.755-57.228-178.388 0-67.54 19.076-125.8 57.228-175.81 41.762-55.166 95.38-83.007 161.374-83.007 61.353 0 113.942 28.356 156.22 85.07 39.182 51.556 58.774 109.816 58.774 173.747zm21.139 2089.1H4404.05c43.824-135.596 65.994-300.58 65.994-494.95V8191.93c0-146.938-2.578-239.74-6.703-279.955-6.702-75.79-26.81-163.437-59.29-263.973h465.045c-32.48 126.315-52.588 214.478-59.29 262.942-4.64 42.792-6.703 131.47-6.703 266.035v637.246c0 196.95 21.654 361.416 65.994 494.95zm1494.127-343.372l-130.956 318.624c-110.847 39.7-219.117 59.29-324.294 59.29-246.96 0-443.392-76.82-586.72-230.46-140.236-149-210.354-348.01-210.354-596.517 0-271.19 80.945-489.793 243.35-654.776 161.89-166.014 378.945-248.506 650.652-248.506 133.018 0 239.74 11.858 320.17 35.575l-17.013 387.71c-76.82-69.087-131.986-114.457-167.56-134.564-59.29-35.06-128.378-53.105-205.714-53.105-152.61 0-272.737 60.837-361.93 182.512-78.884 109.817-118.583 243.35-118.583 402.146 0 182.513 40.73 332.03 122.19 448.548 93.835 131.988 227.883 197.98 402.662 197.98 118.066 0 246.444-38.15 384.102-114.456zm1617.865 343.37h-492.37c7.732-53.103-64.963-201.072-217.573-443.906-92.288-141.267-185.09-282.018-278.41-423.285v447c0 118.067 2.063 190.763 6.703 218.604 5.156 43.308 25.263 110.332 59.29 201.588H6593.69c32.48-87.647 53.103-170.138 60.837-245.412 3.61-38.152 5.156-125.8 5.156-260.88v-1392.56c0-137.142-22.17-263.457-65.992-379.46l465.046-93.835c-44.34 148.485-65.994 311.92-65.994 489.278v997.116c82.492-118.066 164.983-237.163 248.506-356.776 112.395-180.965 167.56-320.686 163.952-418.644h551.662c-130.955 100.536-244.38 215.51-341.824 345.433-15.467 20.623-108.786 160.86-278.924 421.223 151.062 236.647 251.083 391.835 300.578 464.015 117.55 169.107 232.008 313.467 344.402 430.502zm583.112 0h-464.53c43.824-168.075 65.993-337.183 65.993-506.29V7571.18c0-172.717-22.17-353.167-65.993-540.32l464.53-93.834c-43.823 230.976-65.993 436.69-65.993 616.108v1288.416c0 161.89 22.17 317.592 65.995 467.624zm1744.18-1661.172c-111.878 159.312-226.335 405.755-344.917 738.815-160.343 455.25-260.88 726.44-300.578 813.573-128.894 288.205-277.895 496.496-447.002 625.39h-415.036c139.72-116.005 250.568-232.524 331.513-349.044 68.57-97.958 144.876-240.256 228.914-426.893l-293.877-722.317c-124.77-287.174-252.63-513.51-385.648-679.524h457.828c24.747 125.284 86.616 313.468 184.575 564.036 73.727 180.965 146.422 361.93 218.602 542.897 62.385-180.966 124.253-362.447 186.637-544.444 72.696-227.882 107.24-415.55 103.63-562.488h475.358z" class="fil0"/>
      <path id="line13" fill="none" d="M10233.627 11945.296l.516.515" class="fil1"/>
      <path id="path15" fill-rule="nonzero" d="M6594.203 1912.777c1257.996-46.402 2415.97 421.738 3271.306 1215.72 831.1 771.81 1376.06 1852.45 1448.24 3068.17l.516 13.404-202.62 7.734 202.62-7.733c2.063 30.42 3.094 60.323 4.64 90.74 40.215 1094.046-308.312 2112.3-922.358 2921.75l-188.184-88.164c602.704-778.514 946.59-1764.803 907.407-2825.85-1.03-30.42-2.577-60.84-4.124-90.742l-1.03-11.342c-69.087-1160.553-589.815-2192.213-1383.28-2929.482-817.183-758.406-1923.6-1205.407-3125.4-1161.068-1202.314 44.34-2272.642 571.77-3031.564 1388.436-758.407 817.182-1205.408 1923.6-1161.068 3125.398-146.938 4.64-137.143 22.686-203.136 7.734-46.4-1258.512 421.738-2415.97 1215.72-3271.305 793.98-854.82 1914.32-1406.997 3172.315-1453.4z" class="fil0"/>
      <path id="polygon17" fill="#e80707" d="M9674.23 9575.726l3266.667 1479.692-1312.647 1493.097z" class="fil2"/>
      <path id="path19" fill="#1620e0" d="M1893.73 6475.075L300.1 6477.137C298.035 4760.797 977.56 3113.544 2189.67 1898.34l1123.947 1120.855c-877.504 880.08-1420.4 2094.254-1420.4 3435.257 0 6.703.514 13.92.514 20.623z" class="fil3"/>
      <path id="path21" fill="#109634" d="M3303.306 3030.022L2172.14 1901.95C3384.25 686.23 5029.44 2.582 6745.78.004c945.045-1.03 1878.746 204.682 2736.143 602.704l-669.73 1441.024c-624.356-291.298-1319.863-454.22-2054.038-454.22-1351.315 0-2573.22 551.148-3454.85 1440.51z" class="fil4"/>
      <path id="path23" fill="#f0c800" d="M8800.852 2038.576L9469.55 599.1c2280.89 1060.015 3741.507 3345.547 3744.6 5860.508 2.062 1325.02-402.662 2610.857-1148.695 3689.95l-1446.695-735.72c629.513-819.76 1003.82-1845.75 1003.82-2959.386 0-1957.112-1155.4-3644.064-2821.728-4415.876z" class="fil5"/>
      <path id="path25" fill="#e00909" d="M6600.39 12910.447c-2169.528-53.104-4062.193-1170.35-5192.843-2839.772h2080.85c865.13 782.123 2011.762 1259.028 3269.758 1259.028 1071.36 0 2062.29-345.95 2867.097-932.155l768.202 1394.623c-1078.06 735.722-2388.646 1152.305-3793.064 1118.277z" class="fil6"/>
    </g>
  </g>
</svg>
