<svg xmlns="http://www.w3.org/2000/svg" id="svg2" width="472.175" height="461.375" fill-rule="evenodd" viewBox="0 0 13214.144 12912.382" clip-rule="evenodd" image-rendering="optimizeQuality" shape-rendering="geometricPrecision" text-rendering="geometricPrecision">
  <defs id="defs4">
    <style id="style6">
<![CDATA[
    .fil1 {fill:none}
    .fil4 {fill:#109634}
    .fil3 {fill:#1620E0}
    .fil6 {fill:#E00909}
    .fil2 {fill:#E80707}
    .fil5 {fill:#F0C800}
    .fil0 {fill:black;fill-rule:nonzero}
   ]]>
    </style>
  </defs>
  <g id="Слой_x0020_1">
    <g id="_716199584">
      <path id="path11" fill-rule="nonzero" d="M2552.117 9764.94c-82.492 24.233-156.218 36.607-220.15 36.607-163.436 0-323.263-48.98-477.42-147.454-97.442-62.9-225.304-172.2-384.616-327.388-100.53 11.343-188.7 17.014-264.48 17.014-347.49 0-636.73-121.16-867.19-364C112.43 8741.53-.48 8448.17-.48 8099.64c0-354.2 121.16-645.495 363.993-874.41 238.71-224.79 535.68-336.67 889.878-336.67 351.11 0 638.28 117.55 860.49 353.684 218.09 231.492 327.39 524.337 327.39 877.504 0 452.158-176.84 793.98-530.52 1026.505 117.04 168.077 210.36 286.658 278.93 355.23 86.1 85.07 206.75 172.716 362.45 263.457zm-499.59-1567.854c0-265.52-74.242-496.496-224.273-693.444-163.437-216.025-374.306-323.78-634.67-323.78-244.38 0-441.33 82.492-591.36 247.99-142.814 159.312-214.48 362.963-214.48 608.89 0 263.46 75.275 493.92 226.337 691.9 166.02 216.024 376.89 323.778 634.67 323.778 238.71 0 434.63-84.038 586.21-253.146 144.88-161.89 217.57-362.447 217.57-602.188zM4091.1 9309.176h-395.444V9028.19l-250.052 274.282c-79.4 27.325-153.125 41.246-219.634 41.246-183.544 0-310.375-53.62-378.946-160.344-52.588-83.007-79.913-221.696-80.945-417.098-1.04-57.744-.52-140.236 1.54-247.475 3.61-114.45 5.15-196.94 5.15-249.02 0-252.11-24.23-459.37-72.7-621.78h464.53c-43.83 117.04-65.48 256.24-65.48 415.55v629c0 123.23 16.49 207.78 50.01 254.18 40.21 56.72 118.58 85.07 234.58 85.07 85.07 0 187.66-28.87 308.31-86.61v-838.84c0-166.53-22.17-319.14-66-458.34h465.05c-44.34 142.3-65.996 252.63-65.996 330.48v806.87c0 211.39 21.652 385.65 65.99 523.82zm756.86-2089.1c0 64.963-18.56 122.707-55.166 174.78-41.76 55.166-93.834 83.007-156.22 83.007-67.54 0-122.19-26.294-164.982-79.398-38.152-48.98-57.228-107.755-57.228-178.388 0-67.54 19.076-125.8 57.228-175.81 41.762-55.166 95.38-83.007 161.374-83.007 61.353 0 113.942 28.356 156.22 85.07 39.182 51.556 58.774 109.816 58.774 173.747zm21.14 2089.1h-465.05c43.824-135.596 65.994-300.58 65.994-494.95V8191.93c0-146.938-2.578-239.74-6.703-279.955-6.7-75.79-26.81-163.437-59.29-263.973h465.05c-32.48 126.315-52.58 214.478-59.29 262.942-4.64 42.792-6.7 131.47-6.7 266.035v637.24c0 196.95 21.66 361.41 66 494.95zm1494.126-343.372l-130.956 318.624c-110.847 39.7-219.117 59.29-324.294 59.29-246.96 0-443.392-76.82-586.72-230.46-140.236-149-210.354-348.01-210.354-596.517 0-271.19 80.945-489.79 243.35-654.77 161.89-166.01 378.945-248.5 650.652-248.5 133.018 0 239.74 11.86 320.17 35.58l-17.013 387.71c-76.82-69.08-131.98-114.45-167.56-134.56-59.29-35.06-128.37-53.1-205.71-53.1-152.61 0-272.73 60.84-361.93 182.51-78.88 109.82-118.58 243.35-118.58 402.15 0 182.51 40.73 332.03 122.19 448.55 93.84 131.99 227.89 197.98 402.66 197.98 118.07 0 246.45-38.15 384.1-114.45zm1617.865 343.37h-492.37c7.74-53.103-64.96-201.072-217.57-443.906-92.29-141.267-185.09-282.018-278.41-423.285v447c0 118.067 2.07 190.763 6.71 218.604 5.16 43.308 25.27 110.332 59.29 201.588H6593.7c32.48-87.647 53.102-170.138 60.836-245.412 3.61-38.152 5.156-125.8 5.156-260.88v-1392.56c0-137.142-22.17-263.457-65.992-379.46l465.047-93.835c-44.34 148.485-65.993 311.92-65.993 489.278v997.116c82.494-118.066 164.985-237.163 248.508-356.776 112.394-180.965 167.56-320.686 163.95-418.644h551.663c-130.955 100.536-244.38 215.51-341.824 345.433-15.46 20.623-108.78 160.86-278.92 421.223 151.06 236.647 251.08 391.835 300.58 464.015 117.55 169.107 232.01 313.467 344.4 430.502zm583.12 0h-464.53c43.83-168.075 66-337.183 66-506.29V7571.18c0-172.717-22.17-353.167-65.99-540.32l464.53-93.834c-43.82 230.976-65.99 436.69-65.99 616.108V8841.55c0 161.89 22.17 317.592 66 467.624zm1744.18-1661.172c-111.88 159.312-226.33 405.755-344.91 738.815-160.34 455.25-260.88 726.44-300.58 813.573-128.89 288.205-277.89 496.496-447 625.39h-415.04c139.72-116.005 250.57-232.524 331.52-349.044 68.57-97.958 144.88-240.256 228.92-426.893l-293.88-722.317c-124.77-287.174-252.63-513.51-385.643-679.524H9139.6c24.75 125.284 86.618 313.468 184.577 564.036 73.728 180.965 146.42 361.93 218.6 542.897 62.388-180.966 124.256-362.447 186.64-544.444 72.696-227.88 107.24-415.55 103.63-562.48h475.358z" class="fil0"/>
      <path id="line13" fill="none" d="M10233.627 11945.296l.516.515" class="fil1"/>
      <path id="path15" fill-rule="nonzero" d="M6594.203 1912.777c1257.996-46.402 2415.97 421.738 3271.306 1215.72 831.1 771.81 1376.06 1852.45 1448.24 3068.17l.51 13.404-202.62 7.74 202.62-7.73c2.06 30.42 3.09 60.33 4.64 90.74 40.21 1094.05-308.31 2112.3-922.36 2921.75l-188.19-88.16c602.7-778.51 946.59-1764.8 907.4-2825.85-1.03-30.42-2.58-60.84-4.13-90.74l-1.03-11.34c-69.09-1160.55-589.81-2192.21-1383.28-2929.48-817.186-758.4-1923.6-1205.4-3125.4-1161.07-1202.315 44.34-2272.64 571.77-3031.565 1388.44-758.406 817.186-1205.41 1923.6-1161.07 3125.4-146.935 4.64-137.14 22.688-203.133 7.736-46.4-1258.512 421.74-2415.97 1215.72-3271.305 793.98-854.82 1914.32-1406.997 3172.316-1453.4z" class="fil0"/>
      <path id="polygon17" fill="#e80707" d="M9674.23 9575.726l3266.667 1479.692-1312.647 1493.097z" class="fil2"/>
      <path id="path19" fill="#1620e0" d="M1893.73 6475.075l-1593.63 2.062c-2.065-1716.34 677.46-3363.593 1889.57-4578.797l1123.947 1120.855c-877.504 880.08-1420.4 2094.254-1420.4 3435.257 0 6.703.514 13.92.514 20.623z" class="fil3"/>
      <path id="path21" fill="#109634" d="M3303.306 3030.022L2172.14 1901.95C3384.25 686.23 5029.44 2.582 6745.78.004c945.045-1.03 1878.746 204.682 2736.143 602.704l-669.73 1441.024c-624.356-291.298-1319.863-454.22-2054.038-454.22-1351.315 0-2573.22 551.148-3454.85 1440.51z" class="fil4"/>
      <path id="path23" fill="#f0c800" d="M8800.852 2038.576L9469.55 599.1c2280.89 1060.015 3741.507 3345.547 3744.6 5860.508 2.062 1325.02-402.662 2610.857-1148.695 3689.95l-1446.695-735.72c629.513-819.76 1003.82-1845.75 1003.82-2959.386 0-1957.112-1155.4-3644.064-2821.728-4415.876z" class="fil5"/>
      <path id="path25" fill="#e00909" d="M6600.39 12910.447c-2169.528-53.104-4062.193-1170.35-5192.843-2839.772h2080.85c865.13 782.123 2011.762 1259.028 3269.758 1259.028 1071.36 0 2062.29-345.95 2867.097-932.155l768.202 1394.623c-1078.06 735.73-2388.646 1152.31-3793.064 1118.28z" class="fil6"/>
    </g>
  </g>
</svg>
